 http://www.imdb.com/title/tt1050001/
 
http://www.albinofarmthemovie.com/

Directors:Joe Anderson/Sean McEwen

Cast:Tammin Sursok/Chris Jericho/Richard Christy/Duane Whitaker, and others.

Horror

Plot:
Four animated college friends doing research for a school project find themselves a part of the legend they're seeking to unravel when car troubles render them lost in uncharted Ozark Territory where a secret and sadistic society of the deformed awaits them. Through their enduring quest for survival, the eerie curtain covering a real-life American legend is lifted, and a past almost as disturbing as its present is uncovered in "Albino Farm." 

Info:

General
Complete name                    : Albino Farm-AC3-5,1-DVDRip[Eng]2009.avi
Format                           : AVI
Format/Info                      : Audio Video Interleave
File size                        : 1.25 GiB
Duration                         : 1h 25mn
Overall bit rate                 : 2 108 Kbps
Writing application              : VirtualDubMod 1.5.4.1 (build 2178/release)
Writing library                  : VirtualDubMod build 2178/release

Video
Format                           : MPEG-4 Visual
Format profile                   : Simple@L3
Format settings, BVOP            : No
Format settings, QPel            : No
Format settings, GMC             : No warppoints
Format settings, Matrix          : Default
Codec ID                         : XVID
Codec ID/Hint                    : XviD
Duration                         : 1h 25mn
Bit rate                         : 1 653 Kbps
Width                            : 720 pixels
Height                           : 400 pixels
Display aspect ratio             : 16/9
Frame rate                       : 25.000 fps
Resolution                       : 24 bits
Colorimetry                      : 4:2:0
Scan type                        : Progressive
Bits/(Pixel*Frame)               : 0.230
Stream size                      : 1 007 MiB (78%)
Writing library                  : XviD 50

Audio
Format                           : AC-3
Format/Info                      : Audio Coding 3
Codec ID                         : 2000
Duration                         : 1h 25mn
Bit rate mode                    : Constant
Bit rate                         : 448 Kbps
Channel(s)                       : 6 channels
Channel positions                : Front: L C R, Surround: L R, LFE
Sampling rate                    : 48.0 KHz
Stream size                      : 273 MiB (21%)
Alignment                        : Split accross interleaves
Interleave, duration             : 80 ms (2.00 video frames)
Interleave, preload duration     : 500 ms
Language                         : English

Enjoy...